<?xml version="1.0" standalone="no"?>
<!DOCTYPE svg PUBLIC "-//W3C//DTD SVG 1.0//EN" "http://www.w3.org/TR/2001/REC-SVG-20010904/DTD/svg10.dtd">
<svg xmlns="http://www.w3.org/2000/svg" xmlns:xlink="http://www.w3.org/1999/xlink" id="body_1" width="20" height="20">

<g transform="matrix(0.7407407 0 0 0.7407407 0 0)">
	<g transform="matrix(1.35 0 0 1.35 0 0)">
	</g>
    <path transform="matrix(1.35 0 0 1.35 0 0)"  d="M15.47266 16.91016L19.26563 16.91016C 19.64453 16.91016 19.95313 16.60156 19.95313 16.22266L19.95313 16.22266L19.95313 3.8125C 19.95313 3.433594 19.64453 3.125 19.26563 3.125L19.26563 3.125L0.648438 3.125C 0.269531 3.125 -0.0390625 3.433594 -0.0390625 3.8125L-0.0390625 3.8125L-0.0390625 16.22266C -0.0390625 16.60156 0.269531 16.91016 0.648438 16.91016L0.648438 16.91016L15.47266 16.91016z" stroke="none" fill="#C03A2B" fill-rule="nonzero" />
	<g transform="matrix(1.35 0 0 1.35 0 0)">
	</g>
    <path transform="matrix(1.35 0 0 1.35 0 0)"  d="M6.164062 3.125L6.164062 16.91016L0.648438 16.91016C 0.269531 16.91016 -0.0390625 16.60156 -0.0390625 16.22266L-0.0390625 16.22266L-0.0390625 3.8125C -0.0390625 3.433594 0.269531 3.125 0.648438 3.125L0.648438 3.125L6.164062 3.125z" stroke="none" fill="#4C8056" fill-rule="nonzero" />
	<g transform="matrix(1.35 0 0 1.35 0 0)">
	</g>
    <path transform="matrix(1.35 0 0 1.35 0 0)"  d="M6.164062 3.125L13.75 3.125L13.75 16.91016L6.164062 16.91016L6.164062 3.125z" stroke="none" fill="#E6E7E8" fill-rule="nonzero" />
</g>
</svg>